<?xml version="1.0" encoding="utf-8"?>
<svg xmlns="http://www.w3.org/2000/svg" width="64.0" height="64.0" viewBox="0 0 600.0 600.0" preserveAspectRatio="xMidYMid meet">
  <path d="M205.16,451.95C191.92,417.94 176.19,384.35 166.56,349.73l-50.65,-11.76c-4.21,-0.92 -2.87,-2.91 -3.68,-4.68 -0.3,-2.01 -0.6,-4.02 -0.9,-6.02 -0.22,-1.48 -2.45,-2.33 -2.67,-3.81 -1.62,-11.26 -1.74,-24.18 -3.65,-35.24 -5.64,-32.69 -8.3,-63.28 -14.59,-95.16 2.18,-14.08 8.71,-6.97 15.31,-0.31 5.66,19.09 13.07,45.13 19.86,54.04l19.56,53.28c18.49,1.44 36.78,1.64 55.71,5.7 2.84,0.27 4.85,1.78 5,6.08 3,20.49 2,40.98 4.29,61.47 1.46,2.48 2.23,15.42 5.35,33.35 0.58,3.32 -1.02,6.28 -0.5,10.01 1.48,10.68 2.78,21.87 3.37,33.12 0.89,14.78 -7.15,5.77 -13.22,2.14z" fill="#000000" stroke="#3b2c2e" stroke-width="0.5" />
  <path d="M205.16,451.95C191.92,417.94 176.19,384.35 166.56,349.73l-50.65,-11.76c-4.21,-0.92 -2.87,-2.91 -3.68,-4.68 -0.3,-2.01 -0.6,-4.02 -0.9,-6.02 -0.22,-1.48 -2.45,-2.33 -2.67,-3.81 -1.62,-11.26 -1.74,-24.18 -3.65,-35.24 -5.64,-32.69 -8.3,-63.28 -14.59,-95.16 2.18,-14.08 8.71,-6.97 15.31,-0.31 5.66,19.09 13.07,45.13 19.86,54.04l19.56,53.28c18.49,1.44 36.78,1.64 55.71,5.7 2.84,0.27 4.85,1.78 5,6.08 3,20.49 2,40.98 4.29,61.47 1.46,2.48 2.23,15.42 5.35,33.35 0.58,3.32 -1.02,6.28 -0.5,10.01 1.48,10.68 2.78,21.87 3.37,33.12 0.89,14.78 -7.15,5.77 -13.22,2.14z" fill="#3b2c2e" stroke="#000000" stroke-width="0.5" />
  <path d="m265.26,501.26c-0.72,16.23 11.43,10.86 14.91,3.54L356.74,316.28c0.96,-3.92 -2.11,-6.29 -7.33,-7.83l-62.3,-45.64c-4.79,-1.63 -3.02,-3.55 -2.9,-5.4l12.2,-95.48c5.46,-28.29 7.82,-49.41 8.53,-66.76 4.19,-7.03 -6.99,-10.33 -11.29,-2.53l-71.86,186c0.36,4.7 -4.06,13.57 3.54,14.66 14.22,13.92 12.92,11.07 53.58,40.18 3.41,1.79 3.5,1.5 1.52,5.31 -4.69,43.55 -9.04,87.35 -11.88,130.91l-2.27,2.78z" fill="#000000" stroke="#3b2c2e" stroke-width="0.5" />
  <path d="m265.26,501.26c-0.72,16.23 11.43,10.86 14.91,3.54L356.74,316.28c0.96,-3.92 -2.11,-6.29 -7.33,-7.83l-62.3,-45.64c-4.79,-1.63 -3.02,-3.55 -2.9,-5.4l12.2,-95.48c5.46,-28.29 7.82,-49.41 8.53,-66.76 4.19,-7.03 -6.99,-10.33 -11.29,-2.53l-71.86,186c0.36,4.7 -4.06,13.57 3.54,14.66 14.22,13.92 12.92,11.07 53.58,40.18 3.41,1.79 3.5,1.5 1.52,5.31 -4.69,43.55 -9.04,87.35 -11.88,130.91l-2.27,2.78z" fill="#3b2c2e" stroke="#000000" stroke-width="0.5" />
  <path d="m338.82,446.41c-1.7,3.72 2.76,8.25 9.11,7.71 21.87,-19.41 42.5,-40.07 63.09,-60.76 15.37,-15.45 54.56,-47.06 46.45,-45.58 3.88,-1.63 5.88,-6.01 -1.24,-13.13 -2.98,-2.98 -3.73,-7.95 -8.37,-8.4 -4.32,-5.61 -7.79,-14.7 -12.55,-21.35 -2.24,-0.71 -0.36,-5.02 1.07,-8.93l46.08,-60.91c16.14,-17.05 29.79,-32.28 26.65,-35.23 -2.48,-6.95 -3.37,-17.79 -9.83,-15.01l-124.01,98.64c-4.75,3.84 -3.43,8.02 0.36,12.33l28.77,46.1z" fill="#000000" stroke="#3b2c2e" stroke-width="0.5" />
  <path d="m338.82,446.41c-1.7,3.72 2.76,8.25 9.11,7.71 21.87,-19.41 42.5,-40.07 63.09,-60.76 15.37,-15.45 54.56,-47.06 46.45,-45.58 3.88,-1.63 5.88,-6.01 -1.24,-13.13 -2.98,-2.98 -3.73,-7.95 -8.37,-8.4 -4.32,-5.61 -7.79,-14.7 -12.55,-21.35 -2.24,-0.71 -0.36,-5.02 1.07,-8.93l46.08,-60.91c16.14,-17.05 29.79,-32.28 26.65,-35.23 -2.48,-6.95 -3.37,-17.79 -9.83,-15.01l-124.01,98.64c-4.75,3.84 -3.43,8.02 0.36,12.33l28.77,46.1z" fill="#3b2c2e" stroke="#000000" stroke-width="0.5" />
</svg>