<?xml version="1.0" encoding="utf-8"?>
<svg xmlns="http://www.w3.org/2000/svg" width="64.0" height="64.0" viewBox="0 0 2048.0 2048.0" preserveAspectRatio="xMidYMid meet">
  <path d="M835.6,1810.3C749.5,1768.4 750.9,1655.6 701.9,1583 665.2,1519.6 632.7,1451.4 603.6,1383.7 577.8,1298.8 535.7,1221.8 492,1144.3 457,1081.4 408,1034.1 357.9,982.2 297.1,944.4 220.6,916.2 191,846.6c-38.9,-88.6 5.9,-165 87.8,-229.7 30.3,-39.3 92.2,-74.7 88.1,-78.8 -7.4,-22.9 -20.9,-150 2.6,-209.1 11,-43.7 27.1,-57.9 58.5,-34.5 27.9,65 31.9,161.5 76,204.6 44.5,-8.6 93.8,-1.7 153.3,4.9 191.3,34.2 209.9,59.3 298.6,107.6 52.3,40.1 143.2,88.1 170.9,96.9 89.8,37.7 187.7,45.9 280.4,73.5 100.7,10.8 207.6,23.4 292,86.1 53.4,33.7 64.3,73.1 95.9,118.4 39.4,107.1 2.9,221.4 -29.4,325 -22.4,58.1 -44.6,107.2 -63.3,160 -25.3,39.6 -45.1,85.1 -74.5,130.4 -34.2,49 -89.8,186.8 -170.5,129.2 -46.7,-62.9 1.8,-141.8 12.6,-209.5 6,-28 28,-102.3 17.8,-137.7 -141.5,38.7 -328.4,94.1 -465.8,145.5 -69.8,44.7 -93.1,129.5 -109,205.6 -8.2,51.6 -49.8,67.8 -77.4,75.2zM835,1525.8c34.4,-41.8 70.3,-97.8 135,-127.6 43.1,-26.1 107.8,-26.9 158.8,-45.4 64.1,-13.8 134,-36.6 198.1,-67.7 76.3,-13 156.9,-72.2 237.2,-37.1 33.3,10.2 41.1,32.6 41,44.8 20.9,-70.2 90,-203.2 34.6,-266.7C1567.8,963 1473.2,930.9 1380.9,908.6 1258.9,877.8 1126.4,875.8 1019,803.3 936.2,759 869,687.7 777.9,659.4 705.7,638.2 629.5,627.3 554,624.5c56,117.3 -41.9,178.4 -141.4,48 -2.9,2.1 -78.9,51.8 -87.8,101 -21.6,85.8 104.1,76.8 149.4,120.8 89.5,40.2 143.1,131.3 179.5,217.8 30.8,74 63.4,147.7 86.6,223.8 27.2,52.4 54.8,127.2 80.4,187.2 5.7,10.2 7.9,16.5 14.2,2.8z" fill="#ff7d00" stroke="#ff7d00" stroke-width="1.0" />
</svg>